<svg viewBox="0 0 512 512" xmlns="http://www.w3.org/2000/svg"><path d="m332 392c-57.898438 0-112.398438-23.699219-150.5-61.5-37.800781-38.101562-61.5-90.601562-61.5-148.5 0-97.199219 65.398438-145.402344 90.601562-182-16.800781 12.300781-210.601562 59.898438-210.601562 257 0 70.199219 28.5 134.097656 74.699219 180.300781 46.203125 46.199219 112.101562 74.699219 182.300781 74.699219 196.800781 0 242.699219-193.800781 255-210.601562-33.898438 23.402343-81.898438 90.601562-180 90.601562zm0 0" fill="#ffd400"/><path d="m507.5 93.101562-90.300781-12.902343-40.199219-80.199219-40.5 80.199219-90 13.199219 65.402344 63.601562-15.300782 90.699219 80.398438-42.601563 80.699219 42.300782-15.296875-90.699219zm0 0" fill="#ffd400"/><g fill="#fdbf00"><path d="m442.398438 156.699219 15.300781 90.699219-80.699219-42.300782v-205.097656l40.199219 80.199219 90.300781 12.902343zm0 0"/><path d="m512 301.398438c-12.300781 16.800781-58.199219 210.601562-255 210.601562-70.199219 0-136.097656-28.5-182.300781-74.699219l106.800781-106.800781c38.101562 37.800781 92.601562 61.5 150.5 61.5 98.101562 0 146.101562-67.199219 180-90.601562zm0 0"/></g></svg>