<svg height="512pt" viewBox="0 0 512.02349 512" width="512pt" xmlns="http://www.w3.org/2000/svg"><g fill="#ffce54"><path d="m192.011719 272.007812h24v24h-24zm0 0"/><path d="m192.011719 296.007812h24v24h-24zm0 0"/><path d="m216.011719 296.007812h24v24h-24zm0 0"/><path d="m264.011719 296.007812h24v24h-24zm0 0"/><path d="m288.011719 296.007812h24v24h-24zm0 0"/><path d="m288.011719 272.007812h24v24h-24zm0 0"/></g><path d="m288.011719 272.007812v24h-24v24h-24v-24h-24v-24h-24v-24h120v24zm0 0" fill="#656d78"/><path d="m352.011719 216.007812v104h-40v-72h-120v72h-32v-104l96-40zm0 0" fill="#e6e9ed"/><path d="m168.011719 400.007812c0 8.800782-7.199219 16-16 16-8.878907 0-16-7.199218-16-16 0 8.800782-7.199219 16-16 16-8.878907 0-16-7.199218-16-16 0 8.800782-7.199219 16-16 16-8.878907 0-16-7.199218-16-16 0 8.800782-7.199219 16-16 16-8.878907 0-16-7.199218-16-16 0 8.800782-7.199219 16-16 16-8.878907 0-16-7.199218-16-16l16-24h128zm0 0" fill="#ed5565"/><path d="m72.011719 456.007812h32v48h-32zm0 0" fill="#5d9cec"/><path d="m152.011719 416.007812v88h-48v-48h-32v48h-48v-88c8.800781 0 16-7.199218 16-16 0 8.800782 7.121093 16 16 16 8.800781 0 16-7.199218 16-16 0 8.800782 7.121093 16 16 16 8.800781 0 16-7.199218 16-16 0 8.800782 7.121093 16 16 16 8.800781 0 16-7.199218 16-16 0 8.800782 7.121093 16 16 16zm0 0" fill="#e6e9ed"/><path d="m408.011719 456.007812h32v48h-32zm0 0" fill="#5d9cec"/><path d="m488.011719 416.007812v88h-48v-48h-32v48h-48v-88c8.800781 0 16-7.199218 16-16 0 8.800782 7.121093 16 16 16 8.800781 0 16-7.199218 16-16 0 8.800782 7.121093 16 16 16 8.800781 0 16-7.199218 16-16 0 8.800782 7.121093 16 16 16 8.800781 0 16-7.199218 16-16 0 8.800782 7.121093 16 16 16zm0 0" fill="#e6e9ed"/><path d="m360.011719 376.007812h128l16 24c0 8.800782-7.199219 16-16 16-8.878907 0-16-7.199218-16-16 0 8.800782-7.199219 16-16 16-8.878907 0-16-7.199218-16-16 0 8.800782-7.199219 16-16 16-8.878907 0-16-7.199218-16-16 0 8.800782-7.199219 16-16 16-8.878907 0-16-7.199218-16-16 0 8.800782-7.199219 16-16 16-8.878907 0-16-7.199218-16-16zm0 0" fill="#ed5565"/><path d="m408.011719 88.007812h32v48h-32zm0 0" fill="#5d9cec"/><path d="m168.011719 32.007812c0 8.800782-7.199219 16-16 16-8.878907 0-16-7.199218-16-16 0 8.800782-7.199219 16-16 16-8.878907 0-16-7.199218-16-16 0 8.800782-7.199219 16-16 16-8.878907 0-16-7.199218-16-16 0 8.800782-7.199219 16-16 16-8.878907 0-16-7.199218-16-16 0 8.800782-7.199219 16-16 16-8.878907 0-16-7.199218-16-16l16-24h128zm0 0" fill="#ed5565"/><path d="m360.011719 8.007812h128l16 24c0 8.800782-7.199219 16-16 16-8.878907 0-16-7.199218-16-16 0 8.800782-7.199219 16-16 16-8.878907 0-16-7.199218-16-16 0 8.800782-7.199219 16-16 16-8.878907 0-16-7.199218-16-16 0 8.800782-7.199219 16-16 16-8.878907 0-16-7.199218-16-16 0 8.800782-7.199219 16-16 16-8.878907 0-16-7.199218-16-16zm0 0" fill="#ed5565"/><path d="m488.011719 48.007812v88h-48v-48h-32v48h-48v-88c8.800781 0 16-7.199218 16-16 0 8.800782 7.121093 16 16 16 8.800781 0 16-7.199218 16-16 0 8.800782 7.121093 16 16 16 8.800781 0 16-7.199218 16-16 0 8.800782 7.121093 16 16 16 8.800781 0 16-7.199218 16-16 0 8.800782 7.121093 16 16 16zm0 0" fill="#e6e9ed"/><path d="m72.011719 88.007812h32v48h-32zm0 0" fill="#5d9cec"/><path d="m152.011719 48.007812v88h-48v-48h-32v48h-48v-88c8.800781 0 16-7.199218 16-16 0 8.800782 7.121093 16 16 16 8.800781 0 16-7.199218 16-16 0 8.800782 7.121093 16 16 16 8.800781 0 16-7.199218 16-16 0 8.800782 7.121093 16 16 16 8.800781 0 16-7.199218 16-16 0 8.800782 7.121093 16 16 16zm0 0" fill="#e6e9ed"/><path d="m24.019531 144.03125c-4.421875 0-8-3.578125-8-8v-88.023438c0-4.425781 3.578125-8 8-8 4.425781 0 8 3.574219 8 8v88.023438c0 4.421875-3.574219 8-8 8zm0 0"/><path d="m152.035156 144.03125c-4.421875 0-8-3.578125-8-8v-88.023438c0-4.425781 3.578125-8 8-8 4.425782 0 8 3.574219 8 8v88.023438c0 4.421875-3.574218 8-8 8zm0 0"/><path d="m24.003906 56c-13.230468 0-23.99999975-10.769531-23.99999975-24 0-4.425781 3.57812475-8 7.99999975-8 4.425782 0 8 3.574219 8 8 0 4.414062 3.585938 8 8 8 4.417969 0 8-3.585938 8-8 0-4.425781 3.578125-8 8-8 4.425782 0 8 3.574219 8 8 0 13.230469-10.765625 24-24 24zm0 0"/><path d="m56.003906 56c-13.230468 0-24-10.769531-24-24 0-4.425781 3.578125-8 8-8 4.425782 0 8 3.574219 8 8 0 4.414062 3.585938 8 8 8 4.417969 0 8-3.585938 8-8 0-4.425781 3.578125-8 8-8 4.425782 0 8 3.574219 8 8 0 13.230469-10.765625 24-24 24zm0 0"/><path d="m88.003906 56c-13.230468 0-24-10.769531-24-24 0-4.425781 3.578125-8 8-8 4.425782 0 8 3.574219 8 8 0 4.414062 3.585938 8 8 8 4.417969 0 8-3.585938 8-8 0-4.425781 3.578125-8 8-8 4.425782 0 8 3.574219 8 8 0 13.230469-10.765625 24-24 24zm0 0"/><path d="m120.003906 56c-13.230468 0-24-10.769531-24-24 0-4.425781 3.578125-8 8-8 4.425782 0 8 3.574219 8 8 0 4.414062 3.585938 8 8 8 4.417969 0 8-3.585938 8-8 0-4.425781 3.578125-8 8-8 4.425782 0 8 3.574219 8 8 0 13.230469-10.765625 24-24 24zm0 0"/><path d="m152.003906 56c-13.230468 0-24-10.769531-24-24 0-4.425781 3.578125-8 8-8 4.425782 0 8 3.574219 8 8 0 4.414062 3.585938 8 8 8 4.417969 0 8-3.585938 8-8 0-4.425781 3.578125-8 8-8 4.425782 0 8 3.574219 8 8 0 13.230469-10.765625 24-24 24zm0 0"/><path d="m152.035156 144.03125h-128.015625c-4.421875 0-8-3.578125-8-8 0-4.425781 3.578125-8 8-8h128.015625c4.425782 0 8 3.574219 8 8 0 4.421875-3.574218 8-8 8zm0 0"/><path d="m7.996094 40c-1.519532 0-3.070313-.441406-4.4375-1.34375-3.671875-2.457031-4.664063-7.425781-2.210938-11.105469l16.015625-23.984375c2.457031-3.6640622 7.417969-4.664062 11.105469-2.207031 3.671875 2.457031 4.664062 7.421875 2.207031 11.101563l-16.015625 23.984374c-1.542968 2.304688-4.078125 3.554688-6.664062 3.554688zm0 0"/><path d="m168.046875 40c-2.585937 0-5.128906-1.25-6.664063-3.5625l-15.984374-23.984375c-2.457032-3.679687-1.457032-8.636719 2.214843-11.09375 3.679688-2.457031 8.640625-1.4570312 11.097657 2.214844l15.980468 23.984375c2.457032 3.679687 1.457032 8.640625-2.214844 11.097656-1.367187.902344-2.910156 1.34375-4.429687 1.34375zm0 0"/><path d="m152.054688 16.015625h-128.035157c-4.421875 0-8-3.578125-8-8 0-4.425781 3.578125-8 8-8h128.035157c4.421874 0 8 3.574219 8 8 0 4.421875-3.578126 8-8 8zm0 0"/><path d="m72.019531 144.03125c-4.421875 0-8-3.578125-8-8v-48.015625c0-4.425781 3.578125-8 8-8 4.425781 0 8 3.574219 8 8v48.015625c0 4.421875-3.574219 8-8 8zm0 0"/><path d="m104.011719 144.03125c-4.421875 0-8-3.578125-8-8v-48.015625c0-4.425781 3.578125-8 8-8 4.425781 0 8 3.574219 8 8v48.015625c0 4.421875-3.574219 8-8 8zm0 0"/><path d="m104.011719 96.015625h-31.992188c-4.421875 0-8-3.578125-8-8 0-4.425781 3.578125-8 8-8h31.992188c4.425781 0 8 3.574219 8 8 0 4.421875-3.574219 8-8 8zm0 0"/><path d="m360.003906 144.03125c-4.421875 0-8-3.578125-8-8v-88.023438c0-4.425781 3.578125-8 8-8 4.425782 0 8 3.574219 8 8v88.023438c0 4.421875-3.574218 8-8 8zm0 0"/><path d="m488.019531 144.03125c-4.421875 0-8-3.578125-8-8v-88.023438c0-4.425781 3.578125-8 8-8 4.425781 0 8 3.574219 8 8v88.023438c0 4.421875-3.574219 8-8 8zm0 0"/><path d="m359.988281 56c-13.230469 0-24-10.769531-24-24 0-4.425781 3.578125-8 8-8 4.425781 0 8 3.574219 8 8 0 4.414062 3.585938 8 8 8 4.417969 0 8-3.585938 8-8 0-4.425781 3.578125-8 8-8 4.425781 0 8 3.574219 8 8 0 13.230469-10.765625 24-24 24zm0 0"/><path d="m391.988281 56c-13.230469 0-24-10.769531-24-24 0-4.425781 3.578125-8 8-8 4.425781 0 8 3.574219 8 8 0 4.414062 3.585938 8 8 8 4.417969 0 8-3.585938 8-8 0-4.425781 3.578125-8 8-8 4.425781 0 8 3.574219 8 8 0 13.230469-10.765625 24-24 24zm0 0"/><path d="m423.988281 56c-13.230469 0-24-10.769531-24-24 0-4.425781 3.578125-8 8-8 4.425781 0 8 3.574219 8 8 0 4.414062 3.585938 8 8 8 4.417969 0 8-3.585938 8-8 0-4.425781 3.578125-8 8-8 4.425781 0 8 3.574219 8 8 0 13.230469-10.765625 24-24 24zm0 0"/><path d="m455.988281 56c-13.230469 0-24-10.769531-24-24 0-4.425781 3.578125-8 8-8 4.425781 0 8 3.574219 8 8 0 4.414062 3.585938 8 8 8 4.417969 0 8-3.585938 8-8 0-4.425781 3.578125-8 8-8 4.425781 0 8 3.574219 8 8 0 13.230469-10.765625 24-24 24zm0 0"/><path d="m487.988281 56c-13.230469 0-24-10.769531-24-24 0-4.425781 3.578125-8 8-8 4.425781 0 8 3.574219 8 8 0 4.414062 3.585938 8 8 8 4.417969 0 8-3.585938 8-8 0-4.425781 3.578125-8 8-8 4.425781 0 8 3.574219 8 8 0 13.230469-10.765625 24-24 24zm0 0"/><path d="m488.019531 144.03125h-128.015625c-4.421875 0-8-3.578125-8-8 0-4.425781 3.578125-8 8-8h128.015625c4.425781 0 8 3.574219 8 8 0 4.421875-3.574219 8-8 8zm0 0"/><path d="m343.980469 40c-1.519531 0-3.070313-.441406-4.441407-1.34375-3.671874-2.457031-4.660156-7.425781-2.207031-11.105469l16.015625-23.984375c2.457032-3.6640622 7.410156-4.664062 11.105469-2.207031 3.671875 2.457031 4.664063 7.421875 2.207031 11.101563l-16.015625 23.984374c-1.542969 2.304688-4.078125 3.554688-6.664062 3.554688zm0 0"/><path d="m504.027344 40c-2.582032 0-5.125-1.25-6.664063-3.5625l-15.980469-23.984375c-2.457031-3.679687-1.457031-8.636719 2.214844-11.09375 3.679688-2.457031 8.648438-1.4570312 11.09375 2.214844l15.984375 23.984375c2.457031 3.679687 1.457031 8.640625-2.214843 11.097656-1.367188.902344-2.910157 1.34375-4.433594 1.34375zm0 0"/><path d="m488.035156 16.015625h-128.03125c-4.421875 0-8-3.578125-8-8 0-4.425781 3.578125-8 8-8h128.03125c4.425782 0 8 3.574219 8 8 0 4.421875-3.574218 8-8 8zm0 0"/><path d="m408.003906 144.03125c-4.421875 0-8-3.578125-8-8v-48.015625c0-4.425781 3.578125-8 8-8 4.425782 0 8 3.574219 8 8v48.015625c0 4.421875-3.574218 8-8 8zm0 0"/><path d="m439.996094 144.03125c-4.421875 0-8-3.578125-8-8v-48.015625c0-4.425781 3.578125-8 8-8 4.425781 0 8 3.574219 8 8v48.015625c0 4.421875-3.574219 8-8 8zm0 0"/><path d="m439.996094 96.015625h-31.992188c-4.421875 0-8-3.578125-8-8 0-4.425781 3.578125-8 8-8h31.992188c4.425781 0 8 3.574219 8 8 0 4.421875-3.574219 8-8 8zm0 0"/><path d="m24.019531 512c-4.421875 0-8-3.578125-8-8v-88.023438c0-4.425781 3.578125-8 8-8 4.425781 0 8 3.574219 8 8v88.023438c0 4.421875-3.574219 8-8 8zm0 0"/><path d="m152.035156 512c-4.421875 0-8-3.578125-8-8v-88.023438c0-4.425781 3.578125-8 8-8 4.425782 0 8 3.574219 8 8v88.023438c0 4.421875-3.574218 8-8 8zm0 0"/><path d="m24.003906 423.964844c-13.230468 0-23.99999975-10.765625-23.99999975-24 0-4.421875 3.57812475-8 7.99999975-8 4.425782 0 8 3.578125 8 8 0 4.417968 3.585938 8 8 8 4.417969 0 8-3.582032 8-8 0-4.421875 3.578125-8 8-8 4.425782 0 8 3.578125 8 8 0 13.234375-10.765625 24-24 24zm0 0"/><path d="m56.003906 423.964844c-13.230468 0-24-10.765625-24-24 0-4.421875 3.578125-8 8-8 4.425782 0 8 3.578125 8 8 0 4.417968 3.585938 8 8 8 4.417969 0 8-3.582032 8-8 0-4.421875 3.578125-8 8-8 4.425782 0 8 3.578125 8 8 0 13.234375-10.765625 24-24 24zm0 0"/><path d="m88.003906 423.964844c-13.230468 0-24-10.765625-24-24 0-4.421875 3.578125-8 8-8 4.425782 0 8 3.578125 8 8 0 4.417968 3.585938 8 8 8 4.417969 0 8-3.582032 8-8 0-4.421875 3.578125-8 8-8 4.425782 0 8 3.578125 8 8 0 13.234375-10.765625 24-24 24zm0 0"/><path d="m120.003906 423.964844c-13.230468 0-24-10.765625-24-24 0-4.421875 3.578125-8 8-8 4.425782 0 8 3.578125 8 8 0 4.417968 3.585938 8 8 8 4.417969 0 8-3.582032 8-8 0-4.421875 3.578125-8 8-8 4.425782 0 8 3.578125 8 8 0 13.234375-10.765625 24-24 24zm0 0"/><path d="m152.003906 423.964844c-13.230468 0-24-10.765625-24-24 0-4.421875 3.578125-8 8-8 4.425782 0 8 3.578125 8 8 0 4.417968 3.585938 8 8 8 4.417969 0 8-3.582032 8-8 0-4.421875 3.578125-8 8-8 4.425782 0 8 3.578125 8 8 0 13.234375-10.765625 24-24 24zm0 0"/><path d="m152.035156 512h-128.015625c-4.421875 0-8-3.578125-8-8 0-4.425781 3.578125-8 8-8h128.015625c4.425782 0 8 3.574219 8 8 0 4.421875-3.574218 8-8 8zm0 0"/><path d="m7.996094 407.964844c-1.519532 0-3.070313-.4375-4.4375-1.34375-3.671875-2.453125-4.664063-7.421875-2.210938-11.101563l16.015625-23.984375c2.457031-3.664062 7.417969-4.664062 11.105469-2.207031 3.671875 2.453125 4.664062 7.421875 2.207031 11.101563l-16.015625 23.984374c-1.542968 2.304688-4.078125 3.550782-6.664062 3.550782zm0 0"/><path d="m168.046875 407.964844c-2.585937 0-5.128906-1.246094-6.664063-3.558594l-15.984374-23.984375c-2.457032-3.679687-1.457032-8.640625 2.214843-11.09375 3.679688-2.457031 8.640625-1.457031 11.097657 2.214844l15.980468 23.984375c2.457032 3.679687 1.457032 8.640625-2.214844 11.09375-1.367187.90625-2.910156 1.34375-4.429687 1.34375zm0 0"/><path d="m152.054688 383.984375h-128.035157c-4.421875 0-8-3.578125-8-8 0-4.425781 3.578125-8 8-8h128.035157c4.421874 0 8 3.574219 8 8 0 4.421875-3.578126 8-8 8zm0 0"/><path d="m72.019531 512c-4.421875 0-8-3.578125-8-8v-48.015625c0-4.425781 3.578125-8 8-8 4.425781 0 8 3.574219 8 8v48.015625c0 4.421875-3.574219 8-8 8zm0 0"/><path d="m104.011719 512c-4.421875 0-8-3.578125-8-8v-48.015625c0-4.425781 3.578125-8 8-8 4.425781 0 8 3.574219 8 8v48.015625c0 4.421875-3.574219 8-8 8zm0 0"/><path d="m104.011719 463.984375h-31.992188c-4.421875 0-8-3.578125-8-8 0-4.425781 3.578125-8 8-8h31.992188c4.425781 0 8 3.574219 8 8 0 4.421875-3.574219 8-8 8zm0 0"/><path d="m360.003906 512c-4.421875 0-8-3.578125-8-8v-88.023438c0-4.425781 3.578125-8 8-8 4.425782 0 8 3.574219 8 8v88.023438c0 4.421875-3.574218 8-8 8zm0 0"/><path d="m488.019531 512c-4.421875 0-8-3.578125-8-8v-88.023438c0-4.425781 3.578125-8 8-8 4.425781 0 8 3.574219 8 8v88.023438c0 4.421875-3.574219 8-8 8zm0 0"/><path d="m359.988281 423.964844c-13.230469 0-24-10.765625-24-24 0-4.421875 3.578125-8 8-8 4.425781 0 8 3.578125 8 8 0 4.417968 3.585938 8 8 8 4.417969 0 8-3.582032 8-8 0-4.421875 3.578125-8 8-8 4.425781 0 8 3.578125 8 8 0 13.234375-10.765625 24-24 24zm0 0"/><path d="m391.988281 423.964844c-13.230469 0-24-10.765625-24-24 0-4.421875 3.578125-8 8-8 4.425781 0 8 3.578125 8 8 0 4.417968 3.585938 8 8 8 4.417969 0 8-3.582032 8-8 0-4.421875 3.578125-8 8-8 4.425781 0 8 3.578125 8 8 0 13.234375-10.765625 24-24 24zm0 0"/><path d="m423.988281 423.964844c-13.230469 0-24-10.765625-24-24 0-4.421875 3.578125-8 8-8 4.425781 0 8 3.578125 8 8 0 4.417968 3.585938 8 8 8 4.417969 0 8-3.582032 8-8 0-4.421875 3.578125-8 8-8 4.425781 0 8 3.578125 8 8 0 13.234375-10.765625 24-24 24zm0 0"/><path d="m455.988281 423.964844c-13.230469 0-24-10.765625-24-24 0-4.421875 3.578125-8 8-8 4.425781 0 8 3.578125 8 8 0 4.417968 3.585938 8 8 8 4.417969 0 8-3.582032 8-8 0-4.421875 3.578125-8 8-8 4.425781 0 8 3.578125 8 8 0 13.234375-10.765625 24-24 24zm0 0"/><path d="m487.988281 423.964844c-13.230469 0-24-10.765625-24-24 0-4.421875 3.578125-8 8-8 4.425781 0 8 3.578125 8 8 0 4.417968 3.585938 8 8 8 4.417969 0 8-3.582032 8-8 0-4.421875 3.578125-8 8-8 4.425781 0 8 3.578125 8 8 0 13.234375-10.765625 24-24 24zm0 0"/><path d="m488.019531 512h-128.015625c-4.421875 0-8-3.578125-8-8 0-4.425781 3.578125-8 8-8h128.015625c4.425781 0 8 3.574219 8 8 0 4.421875-3.574219 8-8 8zm0 0"/><path d="m343.980469 407.964844c-1.519531 0-3.070313-.4375-4.441407-1.34375-3.671874-2.453125-4.660156-7.421875-2.207031-11.101563l16.015625-23.984375c2.457032-3.664062 7.410156-4.664062 11.105469-2.207031 3.671875 2.453125 4.664063 7.421875 2.207031 11.101563l-16.015625 23.984374c-1.542969 2.304688-4.078125 3.550782-6.664062 3.550782zm0 0"/><path d="m504.027344 407.964844c-2.582032 0-5.125-1.246094-6.664063-3.558594l-15.980469-23.984375c-2.457031-3.679687-1.457031-8.640625 2.214844-11.09375 3.679688-2.457031 8.648438-1.457031 11.09375 2.214844l15.984375 23.984375c2.457031 3.679687 1.457031 8.640625-2.214843 11.09375-1.367188.90625-2.910157 1.34375-4.433594 1.34375zm0 0"/><path d="m488.035156 383.984375h-128.03125c-4.421875 0-8-3.578125-8-8 0-4.425781 3.578125-8 8-8h128.03125c4.425782 0 8 3.574219 8 8 0 4.421875-3.574218 8-8 8zm0 0"/><path d="m408.003906 512c-4.421875 0-8-3.578125-8-8v-48.015625c0-4.425781 3.578125-8 8-8 4.425782 0 8 3.574219 8 8v48.015625c0 4.421875-3.574218 8-8 8zm0 0"/><path d="m439.996094 512c-4.421875 0-8-3.578125-8-8v-48.015625c0-4.425781 3.578125-8 8-8 4.425781 0 8 3.574219 8 8v48.015625c0 4.421875-3.574219 8-8 8zm0 0"/><path d="m439.996094 463.984375h-31.992188c-4.421875 0-8-3.578125-8-8 0-4.425781 3.578125-8 8-8h31.992188c4.425781 0 8 3.574219 8 8 0 4.421875-3.574219 8-8 8zm0 0"/><path d="m159.980469 223.992188c-3.136719 0-6.101563-1.847657-7.382813-4.921876-1.703125-4.078124.222656-8.769531 4.304688-10.464843l96.015625-40.007813c4.070312-1.695312 8.757812.226563 10.464843 4.304688 1.703126 4.082031-.226562 8.769531-4.304687 10.464844l-96.015625 40.007812c-1.007812.421875-2.050781.617188-3.082031.617188zm0 0"/><path d="m352.027344 224c-1.03125 0-2.070313-.191406-3.078125-.617188l-96.03125-40.015624c-4.082031-1.695313-6.007813-6.382813-4.304688-10.464844 1.710938-4.078125 6.40625-6 10.464844-4.304688l96.03125 40.015625c4.078125 1.699219 6.007813 6.386719 4.304687 10.464844-1.28125 3.074219-4.25 4.921875-7.386718 4.921875zm0 0"/><path d="m160.011719 328.015625c-4.421875 0-8-3.578125-8-8v-104.023437c0-4.425782 3.578125-8 8-8 4.425781 0 8 3.574218 8 8v104.023437c0 4.421875-3.574219 8-8 8zm0 0"/><path d="m351.988281 328.015625c-4.421875 0-8-3.578125-8-8v-104.023437c0-4.425782 3.578125-8 8-8 4.425781 0 8 3.574218 8 8v104.023437c0 4.421875-3.574219 8-8 8zm0 0"/><path d="m351.988281 328.015625h-191.976562c-4.421875 0-8-3.578125-8-8 0-4.425781 3.578125-8 8-8h191.976562c4.425781 0 8 3.574219 8 8 0 4.421875-3.574219 8-8 8zm0 0"/><path d="m191.988281 328.015625c-4.421875 0-8-3.578125-8-8v-72.015625c0-4.425781 3.578125-8 8-8 4.425781 0 8 3.574219 8 8v72.015625c0 4.421875-3.574219 8-8 8zm0 0"/><path d="m312.003906 256h-120.015625c-4.421875 0-8-3.578125-8-8 0-4.425781 3.578125-8 8-8h120.015625c4.425782 0 8 3.574219 8 8 0 4.421875-3.574218 8-8 8zm0 0"/><path d="m312.003906 328.015625c-4.421875 0-8-3.578125-8-8v-72.015625c0-4.425781 3.578125-8 8-8 4.425782 0 8 3.574219 8 8v72.015625c0 4.421875-3.574218 8-8 8zm0 0"/><path d="m312.003906 304.023438h-48c-4.421875 0-8-3.578126-8-8 0-4.425782 3.578125-8 8-8h48c4.425782 0 8 3.574218 8 8 0 4.421874-3.574218 8-8 8zm0 0"/><path d="m312.003906 280.015625h-24c-4.421875 0-8-3.578125-8-8 0-4.425781 3.578125-8 8-8h24c4.425782 0 8 3.574219 8 8 0 4.421875-3.574218 8-8 8zm0 0"/><path d="m288.003906 328.015625c-4.421875 0-8-3.578125-8-8v-48c0-4.425781 3.578125-8 8-8 4.425782 0 8 3.574219 8 8v48c0 4.421875-3.574218 8-8 8zm0 0"/><path d="m264.003906 328.015625c-4.421875 0-8-3.578125-8-8v-23.992187c0-4.425782 3.578125-8 8-8 4.425782 0 8 3.574218 8 8v23.992187c0 4.421875-3.574218 8-8 8zm0 0"/><path d="m239.996094 304.023438h-48c-4.421875 0-8-3.578126-8-8 0-4.425782 3.578125-8 8-8h48c4.425781 0 8 3.574218 8 8 0 4.421874-3.574219 8-8 8zm0 0"/><path d="m215.996094 280.015625h-24c-4.421875 0-8-3.578125-8-8 0-4.425781 3.578125-8 8-8h24c4.425781 0 8 3.574219 8 8 0 4.421875-3.574219 8-8 8zm0 0"/><path d="m215.996094 328.015625c-4.421875 0-8-3.578125-8-8v-48c0-4.425781 3.578125-8 8-8 4.425781 0 8 3.574219 8 8v48c0 4.421875-3.574219 8-8 8zm0 0"/><path d="m239.996094 328.015625c-4.421875 0-8-3.578125-8-8v-23.992187c0-4.425782 3.578125-8 8-8 4.425781 0 8 3.574218 8 8v23.992187c0 4.421875-3.574219 8-8 8zm0 0"/><path d="m424.003906 351.949219c-4.421875 0-8-3.574219-8-8v-175.878907c0-4.421874 3.578125-8 8-8 4.425782 0 8 3.578126 8 8v175.878907c0 4.425781-3.574218 8-8 8zm0 0"/><path d="m88.035156 351.949219c-4.421875 0-8-3.574219-8-8v-175.878907c0-4.421874 3.578125-8 8-8 4.425782 0 8 3.578126 8 8v175.878907c0 4.425781-3.574218 8-8 8zm0 0"/><path d="m328.003906 96.015625h-143.96875c-4.421875 0-8-3.578125-8-8 0-4.425781 3.578125-8 8-8h143.96875c4.425782 0 8 3.574219 8 8 0 4.421875-3.574218 8-8 8zm0 0"/><path d="m328.003906 464.007812h-143.96875c-4.421875 0-8-3.578124-8-8 0-4.425781 3.578125-8 8-8h143.96875c4.425782 0 8 3.574219 8 8 0 4.421876-3.574218 8-8 8zm0 0"/></svg>