<svg id="Capa_1" enable-background="new 0 0 515.821 515.821" height="512" viewBox="0 0 515.821 515.821" width="512" xmlns="http://www.w3.org/2000/svg"><path d="m94.741 484.293c-12.52 0-22.671-10.15-22.671-22.67v-181.207c0-12.52 10.15-22.67 22.671-22.67s22.671 10.15 22.671 22.67v181.207c0 12.52-10.15 22.67-22.671 22.67z" fill="#ffb69e"/><path d="m149.87 484.293c-12.52 0-22.671-10.15-22.671-22.67v-181.207c0-12.52 10.15-22.67 22.671-22.67s22.671 10.15 22.671 22.67v181.207c0 12.52-10.151 22.67-22.671 22.67z" fill="#ffab8f"/><g fill="#ffb69e"><path d="m142.343 99.369h-40.824l-.282 1.78c-2.012 12.687 7.792 24.169 20.638 24.169 12.44 0 22.124-10.801 20.772-23.167z"/><path d="m243.458 262.581c-.245-.67-34.372-95.207-34.372-95.207l-22.787-6.609-13.033 18.649s34.458 95.466 34.705 96.141c3.589 9.816 14.446 14.833 24.231 11.256 9.8-3.582 14.839-14.431 11.256-24.23z"/><path d="m35.964 166.141s-34.562 95.763-34.81 96.44c-3.583 9.799 1.457 20.648 11.256 24.231 9.796 3.581 20.647-1.455 24.231-11.256-.374 1.022 35.115-97.297 35.115-97.297l-12.068-19.523z"/></g><path d="m170.426 171.396 2.838 8.019 35.822-12.041c-3.921-11.037-7.524-21.286-10.37-29.567-8.764-25.507-23.462-38.439-43.682-38.439h-12.691c.49 11.021-9.737 20.407-20.412 20.407-11.441 0-19.914-9.35-20.412-20.407h-11.942c-20.219 0-34.916 12.932-43.681 38.438-2.739 7.971-6.181 17.767-9.932 28.334l35.782 12.115 2.439-6.86-26.834 140.686c-1.258 6.499 3.75 12.503 10.304 12.503h129.302c6.576 0 11.563-5.999 10.303-12.503z" fill="#ff6473"/><circle cx="122.306" cy="47.734" fill="#ffb69e" r="39.154"/><path d="m447.272 485.276c-12.52 0-22.669-10.15-22.669-22.67v-181.2c0-12.52 10.149-22.67 22.669-22.67s22.669 10.15 22.669 22.67v181.2c0 12.52-10.149 22.67-22.669 22.67z" fill="#55696e"/><path d="m392.138 485.276c-12.52 0-22.669-10.15-22.669-22.67v-181.2c0-12.52 10.149-22.67 22.669-22.67s22.669 10.15 22.669 22.67v181.2c0 12.52-10.149 22.67-22.669 22.67z" fill="#748488"/><circle cx="419.708" cy="48.733" fill="#80391b" r="39.153"/><path d="m496.929 172.534-18.891 12.058v99.137c0 10.433 8.458 18.891 18.891 18.891s18.891-8.458 18.891-18.891v-99.137z" fill="#80391b"/><path d="m323.522 184.592v99.137c0 10.433 8.458 18.891 18.891 18.891s18.891-8.458 18.891-18.891v-99.137l-18.891-8.464z" fill="#ffb69e"/><path d="m438.586 100.366h-39.845l-.87 3.837c-3.029 13.357 7.125 26.071 20.821 26.071 13.826 0 24.005-12.941 20.749-26.377z" fill="#80391b"/><path d="m515.821 184.592v-39.745c-.123-24.527-20.491-44.482-45.403-44.482h-31.831c.374 10.691-9.56 19.765-19.931 19.765-11.115 0-19.354-9.04-19.914-19.765h-29.741c-24.953 0-45.354 19.954-45.477 44.577v39.65h37.783v-39.556c.018-3.605 3.686-6.889 7.695-6.889h.469v143.258h100.473l-.176-143.258h.652c3.97 0 7.603 3.283 7.621 6.794v39.65h37.78z" fill="#e64937"/><circle id="XMLID_3253_" cx="259.622" cy="46.312" fill="#ffb69e" r="41.695"/><path d="m289.752 511.204c-13.332 0-24.14-10.808-24.14-24.14v-192.968c0-13.332 10.808-24.14 24.14-24.14s24.14 10.808 24.14 24.14v192.968c-.001 13.332-10.808 24.14-24.14 24.14z" fill="#373c41"/><path d="m231.469 511.204c-13.332 0-24.14-10.808-24.14-24.14v-192.968c0-13.332 10.808-24.14 24.14-24.14s24.14 10.808 24.14 24.14v192.968c-.001 13.332-10.809 24.14-24.14 24.14z" fill="#50555a"/><path d="m260.69 294.096 3.76-88.289-1.911-53.363-30.643-52.355h-25.853c-26.319 0-47.837 21.25-47.968 47.369v.101 133.701l20.117 8.967 20.117-8.967v-133.629c.037-3.965 3.572-7.309 7.735-7.309h1.286v153.775h53.36z" fill="#00558c"/><path d="m362.721 147.457c-.131-26.119-21.649-47.369-47.968-47.369h-25.598l-28.465 27.56v166.448h53.202v-153.774h.862c4.163 0 7.698 3.344 7.735 7.309v133.629l20.117 9.713 20.117-9.713v-133.702c-.002-.033-.002-.067-.002-.101z" fill="#003f73"/><path d="m158.075 281.259v4.179c0 11.11 9.006 20.117 20.117 20.117s20.117-9.006 20.117-20.117v-4.179z" fill="#ffb69e"/><path d="m322.488 281.259v4.179c0 11.11 9.006 20.117 20.117 20.117s20.117-9.006 20.117-20.117v-4.179z" fill="#ffb69e"/><path d="m231.896 100.089s6.485 38.739 20.875 49.689h15.508c14.39-10.95 20.875-49.689 20.875-49.689z" fill="#fff"/><path d="m265.758 120.281h-10.464c-1.513 0-2.811-1.08-3.086-2.568l-2.569-13.916c-.356-1.929 1.125-3.708 3.086-3.708h15.602c1.961 0 3.442 1.779 3.086 3.708l-2.569 13.916c-.275 1.487-1.573 2.568-3.086 2.568z" fill="#373c41"/><path d="m267.909 125.618c-.237-1.206-1.295-2.076-2.524-2.076h-9.719c-1.229 0-2.287.87-2.524 2.076l-2.534 12.883c-.067.339-.064.688.007 1.027l2.158 10.249c2.368 1.802 4.951 2.852 7.754 2.852s5.385-1.051 7.754-2.852l2.158-10.249c.071-.338.074-.687.007-1.027z" fill="#373c41"/><path d="m308.826 187.214h-33.062c-2.796 0-5.063-2.267-5.063-5.063v-19.216c0-2.796 2.267-5.063 5.063-5.063h33.062c2.796 0 5.063 2.267 5.063 5.063v19.216c0 2.796-2.266 5.063-5.063 5.063z" fill="#fff"/><path d="m280.872 167.816c-1.204 0-1.901.676-1.901 2.113v5.6c0 1.437.697 2.113 1.922 2.113 1.691 0 1.796-1.289 1.86-2.113.063-.782.781-.993 1.627-.993 1.141 0 1.67.296 1.67 1.563 0 2.811-2.283 4.417-5.304 4.417-2.768 0-5.072-1.352-5.072-4.987v-5.6c0-3.634 2.304-4.987 5.072-4.987 3.021 0 5.304 1.522 5.304 4.205 0 1.268-.529 1.563-1.648 1.563-.888 0-1.606-.232-1.648-.993-.022-.548-.086-1.901-1.882-1.901z" fill="#373c41"/><path d="m291.016 171.387h3.169c.634 0 .994.613.994 1.289 0 .571-.296 1.247-.994 1.247h-3.169v3.592h5.663c.633 0 .993.676.993 1.458 0 .676-.296 1.416-.993 1.416h-7.523c-.718 0-1.437-.338-1.437-1.014v-13.419c0-.676.719-1.014 1.437-1.014h7.523c.697 0 .993.74.993 1.416 0 .782-.359 1.458-.993 1.458h-5.663z" fill="#373c41"/><path d="m298.792 175.529v-5.6c0-3.634 2.262-4.987 5.177-4.987 2.916 0 5.199 1.352 5.199 4.987v5.6c0 3.635-2.283 4.987-5.199 4.987-2.915 0-5.177-1.352-5.177-4.987zm7.08-5.6c0-1.458-.718-2.113-1.902-2.113-1.183 0-1.88.655-1.88 2.113v5.6c0 1.458.697 2.113 1.88 2.113 1.184 0 1.902-.655 1.902-2.113z" fill="#373c41"/></svg>