<svg id="Layer_1" enable-background="new 0 0 509.468 509.468" height="512" viewBox="0 0 509.468 509.468" width="512" xmlns="http://www.w3.org/2000/svg"><g><g><g><g id="XMLID_669_"><g><path d="m127.709 490.914c-12.92 0-23.395-10.474-23.395-23.395v-186.997c0-12.921 10.475-23.395 23.395-23.395s23.395 10.474 23.395 23.395v186.997c0 12.921-10.475 23.395-23.395 23.395z" fill="#414b82"/></g></g><g id="XMLID_668_"><g><path d="m70.812 490.914c-12.92 0-23.395-10.474-23.395-23.395v-186.997c0-12.921 10.475-23.395 23.395-23.395s23.395 10.474 23.395 23.395v186.997c0 12.921-10.475 23.395-23.395 23.395z" fill="#5f6e9b"/></g></g><g fill="#ffb69e"><ellipse cx="99.264" cy="40.405" rx="40.405" ry="40.405" transform="matrix(.999 -.045 .045 .999 -1.729 4.54)"/><path d="m0 187.757v95.163c0 10.767 8.729 19.496 19.496 19.496s19.496-8.729 19.496-19.496v-95.163l-19.496-4.107z"/><path d="m120.399 93.69h-44.519l-.23 1.428c-2.222 13.783 8.422 26.28 22.383 26.28 13.168 0 23.566-11.18 22.612-24.314z"/><path d="m159.459 187.757v95.163c0 10.767 8.729 19.496 19.496 19.496s19.496-8.729 19.496-19.496v-95.163l-19.496-4.107z"/></g><path d="m198.451 187.757v-48.162c-.127-25.313-21.146-45.905-46.855-45.905h-31.197c.146 11.774-10.818 21.689-22.282 21.689-12.287 0-21.419-9.879-22.237-21.689h-28.948c-25.751 0-46.805 20.592-46.932 46.003v48.064h38.991v-47.967c.019-3.721 3.804-7.11 7.941-7.11h.484v147.841h103.687l-.097-95.87h-.021l-.064-51.971h.673c4.097 0 7.846 3.389 7.864 7.012v48.064h38.993z" fill="#64afff"/></g><g><g id="XMLID_667_"><g><path d="m389.089 490.914c-12.92 0-23.395-10.474-23.395-23.395v-186.997c0-12.921 10.475-23.395 23.395-23.395s23.395 10.474 23.395 23.395v186.997c0 12.921-10.475 23.395-23.395 23.395z" fill="#55696e"/></g></g><g id="XMLID_666_"><g><path d="m332.192 490.914c-12.92 0-23.395-10.474-23.395-23.395v-186.997c0-12.921 10.475-23.395 23.395-23.395s23.395 10.474 23.395 23.395v186.997c0 12.921-10.475 23.395-23.395 23.395z" fill="#748488"/></g></g><g fill="#ba6746"><ellipse cx="360.644" cy="40.405" rx="40.405" ry="40.405" transform="matrix(.999 -.045 .045 .999 -1.461 16.384)"/><path d="m261.38 187.757v95.163c0 10.767 8.729 19.496 19.496 19.496s19.496-8.729 19.496-19.496v-95.163l-19.496-4.107z"/><path d="m381.779 93.69h-44.519l-.23 1.428c-2.222 13.783 8.422 26.28 22.383 26.28 13.168 0 23.566-11.18 22.612-24.314z"/><path d="m420.839 187.757v95.163c0 10.767 8.729 19.496 19.496 19.496s19.496-8.729 19.496-19.496v-95.163l-19.496-4.107z"/></g><path d="m459.831 187.757v-48.162c-.127-25.313-21.146-45.905-46.855-45.905h-31.197c.146 11.774-10.818 21.689-22.282 21.689-12.287 0-21.419-9.879-22.237-21.689h-28.948c-25.751 0-46.805 20.592-46.932 46.003v48.064h38.991v-47.967c.019-3.721 3.804-7.11 7.941-7.11h.484v147.841h103.687l-.097-95.87h-.021l-.064-51.971h.673c4.097 0 7.846 3.389 7.864 7.012v48.064h38.993z" fill="#ffda52"/></g></g><g><g id="XMLID_6474_"><g id="XMLID_6476_"><path d="m201.561 508.72c-12.879 0-23.32-10.441-23.32-23.32v-186.402c0-12.879 10.441-23.32 23.32-23.32s23.32 10.441 23.32 23.32v186.402c0 12.879-10.441 23.32-23.32 23.32z" fill="#ffb69e"/></g><g id="XMLID_6475_"><path d="m258.27 508.72c-12.879 0-23.32-10.441-23.32-23.32v-186.402c0-12.879 10.441-23.32 23.32-23.32s23.32 10.441 23.32 23.32v186.402c0 12.879-10.441 23.32-23.32 23.32z" fill="#ffb69e"/></g></g><g><ellipse cx="229.916" cy="59.646" fill="#ffb69e" rx="40.277" ry="40.277" transform="matrix(.987 -.16 .16 .987 -6.586 37.599)"/></g><g fill="#ffb69e"><path d="m207.498 112.761-.376 3.939c-1.268 13.266 9.164 24.742 22.49 24.742 13.486 0 23.968-11.738 22.449-25.138l-.402-3.543z"/><path d="m139.086 187.106s-33.56 92.901-33.796 93.546c-3.686 10.08 1.499 21.24 11.579 24.925 10.077 3.684 21.239-1.496 24.925-11.579.215-.587 28.277-78.102 28.277-78.102l7.7-21.537z"/><path d="m354.541 280.652c-.236-.645-35.025-97.002-35.025-97.002l-40.699 7.444c.251 1.081 10.656 23.863 10.656 23.863s28.324 78.384 28.564 79.041c3.69 10.093 14.857 15.26 24.925 11.579 10.08-3.685 15.265-14.845 11.579-24.925z"/></g><path d="m287.507 201.035 32.008-17.385s-6.54-18.373-10.999-31.348c-9.016-26.237-24.134-39.541-44.935-39.541h-11.923c-.452 11.265-11.071 20.57-22.142 20.57-11.867 0-20.785-9.273-22.019-20.57h-11.249c-20.8 0-35.918 13.304-44.934 39.541-4.459 12.975-12.229 34.805-12.229 34.805l33.237 13.929-19.808 130.744c-1.146 6.615 3.974 12.652 10.637 12.652h133.529c6.686 0 11.785-6.03 10.637-12.652z" fill="#ff6473"/></g></g></svg>