<svg xmlns="http://www.w3.org/2000/svg" viewBox="0 0 376.3 594.7"><defs><style>.cls-1{fill:#616e7d;}</style></defs><title>Asset 1</title><g id="Layer_2" data-name="Layer 2"><g id="Object"><path class="cls-1" d="M205.3,153.5a30.7,30.7,0,0,0-30.6-30.7h-2.2a39,39,0,0,0-39,38.9l-1.6,52.6-3.7,115.6c-.8,3.6-1.3,84.1-1.3,84.1-6.8-7-14.3-14.9-21.1-22.5-15.9-17.7-45.1-29.6-64.5-31.9-10.2-1.1-18,.3-23.2,4.2a38,38,0,0,0-4.8,4.2c-10,9.8-17.6,25.8-10.6,37.4,3,5.1,8.2,8.5,13.7,12.1,7.4,4.7,19.7,9.8,28.9,21.6,15.5,19.9,51.4,64.2,73.4,87.8,4.6,2.9,14.3,12.6,18.9,15,13.9,8.9,25.3,17.3,29.3,21.8s21.3,12.9,21.3,12.9c14.7,9.3,41.5,18,72.5,18s59,1.9,79.7-16.4h1.1l.6-1.3c21.1-19.4,34.2-46.2,34.2-75.8V359.5c0-7-1.5-30.3-21.1-37.2-9.4-3.4-18.3-2.1-25.9,1.2H327c-3.4-12.8-11.9-21.1-24.4-23.3-15.2-2.6-25.8,1.9-32.1,6.5-6.3-13.5-18.9-20.5-35.9-19.1-12.8,1.1-22.4,7.4-29.3,15.7V153.5Z"/><path class="cls-1" d="M254.5,179.5A15.4,15.4,0,0,1,239,164a70.5,70.5,0,0,0-141,0,15.5,15.5,0,0,1-31,0,101.5,101.5,0,0,1,203,0A15.4,15.4,0,0,1,254.5,179.5Z"/><path class="cls-1" d="M317,179.5A15.4,15.4,0,0,1,301.5,164c0-73.3-59.7-133-133-133s-133,59.7-133,133a15.5,15.5,0,0,1-31,0C4.5,73.6,78.1,0,168.5,0s164,73.6,164,164A15.4,15.4,0,0,1,317,179.5Z"/></g></g></svg>